<svg width="27" height="27" viewBox="0 0 27 27" fill="none" xmlns="http://www.w3.org/2000/svg">
<path d="M16.972 13.6721L26.2796 4.38606C26.6872 3.97846 26.9162 3.42564 26.9162 2.84921C26.9162 2.27278 26.6872 1.71996 26.2796 1.31236C25.872 0.904767 25.3192 0.675781 24.7428 0.675781C24.1664 0.675781 23.6135 0.904767 23.206 1.31236L13.9199 10.62L4.6339 1.31236C4.2263 0.904767 3.67348 0.675781 3.09705 0.675781C2.52062 0.675781 1.9678 0.904767 1.5602 1.31236C1.1526 1.71996 0.923616 2.27278 0.923616 2.84921C0.923616 3.42564 1.1526 3.97846 1.5602 4.38606L10.8679 13.6721L1.5602 22.9581C1.35732 23.1593 1.19629 23.3987 1.08639 23.6625C0.976501 23.9263 0.919922 24.2092 0.919922 24.495C0.919922 24.7807 0.976501 25.0636 1.08639 25.3274C1.19629 25.5912 1.35732 25.8306 1.5602 26.0318C1.76142 26.2347 2.00083 26.3957 2.2646 26.5056C2.52838 26.6155 2.8113 26.6721 3.09705 26.6721C3.3828 26.6721 3.66572 26.6155 3.92949 26.5056C4.19327 26.3957 4.43267 26.2347 4.6339 26.0318L13.9199 16.7241L23.206 26.0318C23.4072 26.2347 23.6466 26.3957 23.9104 26.5056C24.1741 26.6155 24.457 26.6721 24.7428 26.6721C25.0285 26.6721 25.3115 26.6155 25.5752 26.5056C25.839 26.3957 26.0784 26.2347 26.2796 26.0318C26.4825 25.8306 26.6436 25.5912 26.7535 25.3274C26.8633 25.0636 26.9199 24.7807 26.9199 24.495C26.9199 24.2092 26.8633 23.9263 26.7535 23.6625C26.6436 23.3987 26.4825 23.1593 26.2796 22.9581L16.972 13.6721Z" fill="#7270EB"/>
</svg>
