<svg width="116" height="118" viewBox="0 0 116 118" fill="none" xmlns="http://www.w3.org/2000/svg">
<g filter="url(#filter0_bi_406_983)">
<g filter="url(#filter1_bi_406_983)">
<path fill-rule="evenodd" clip-rule="evenodd" d="M106.31 80.5383V80.518L91.7107 73.2783L67.4146 91.0165L57.9907 85.412L52.04 89.4565V93.501C52.04 95.6464 52.876 97.7039 54.3639 99.2209C55.8519 100.738 57.87 101.59 59.9743 101.59H60.1528C60.719 101.59 61.2789 101.713 61.7952 101.95C62.3115 102.187 62.7726 102.533 63.1479 102.965L74.6129 116.353C75.0002 116.794 75.4738 117.148 76.0033 117.392C76.5328 117.636 77.1064 117.764 77.6874 117.768H77.7072C78.7909 117.768 79.8303 117.329 80.5966 116.548C81.3629 115.767 81.7934 114.707 81.7934 113.602V103.107C83.4244 103.451 85.0862 103.62 86.7518 103.612C98.2564 103.612 107.579 95.9075 107.579 86.4231C107.581 84.3906 107.148 82.3822 106.31 80.5383Z" fill="#E6EFFE"/>
</g>
<g filter="url(#filter2_bi_406_983)">
<path d="M109.205 55.361C108.041 54.5889 106.771 53.9961 105.437 53.6016C105.539 52.7495 105.592 51.8918 105.595 51.0333C105.596 46.4445 104.203 41.9681 101.606 38.22C99.0097 34.4718 95.3377 31.636 91.0955 30.1028H91.0756C89.0894 29.3837 87.0116 28.9614 84.9068 28.849C81.9095 25.9315 78.1561 23.9491 74.0897 23.1357C70.0232 22.3223 65.8134 22.7119 61.957 24.2585C60.6995 23.2196 59.2864 22.3934 57.7717 21.8115H57.7519C55.9353 21.0706 53.9958 20.693 52.0393 20.6993C49.5873 20.6929 47.1683 21.2748 44.9778 22.398C43.7055 23.0501 42.5247 23.8731 41.4669 24.8449C38.7484 23.1203 35.5262 22.4132 32.3525 22.8448C29.1787 23.2765 26.2511 24.8201 24.0711 27.211C23.0633 28.2838 22.2387 29.521 21.6314 30.8713C21.195 30.8309 20.7586 30.8106 20.3024 30.8106C18.4777 30.8061 16.6702 31.1692 14.9836 31.8789C13.297 32.5887 11.7646 33.6313 10.4744 34.9467C9.18414 36.2621 8.16155 37.8244 7.46535 39.5439C6.76914 41.2634 6.41303 43.1063 6.41748 44.9665C6.41748 45.1283 6.43732 45.3103 6.43732 45.4721C3.53078 47.5196 1.50263 50.6231 0.768686 54.1463C0.0347436 57.6696 0.650619 61.3456 2.49004 64.4207C2.47021 64.6836 2.45037 64.9263 2.45037 65.1892C2.44757 67.3001 2.81017 69.3949 3.52149 71.3773C4.67212 74.6301 6.70924 77.4805 9.39361 79.594C12.078 81.7075 15.2981 82.9961 18.6759 83.3087C19.2161 83.3664 19.7591 83.3934 20.3024 83.3896C21.1053 83.38 21.9069 83.3192 22.7025 83.2076C23.3906 86.4702 24.9477 89.4764 27.2024 91.8957C29.4572 94.315 32.3224 96.0538 35.4833 96.9211C38.6442 97.7884 41.9784 97.7506 45.1196 96.8119C48.2609 95.8731 51.0875 94.0698 53.2889 91.6C54.1977 90.605 54.9898 89.5056 55.6493 88.3239C61.2355 91.4012 67.7402 92.2651 73.9133 90.7495C80.0863 89.234 85.4922 85.446 89.0921 80.1135C89.8785 78.9683 90.5686 77.7573 91.155 76.4936C92.4545 78.0312 94.063 79.2659 95.8717 80.114C97.6803 80.9621 99.6466 81.4038 101.637 81.4091C103.628 81.4144 105.597 80.9832 107.41 80.1448C109.223 79.3063 110.837 78.0802 112.145 76.5496C113.452 75.019 114.421 73.2197 114.987 71.2737C115.552 69.3277 115.701 67.2804 115.422 65.2708C115.143 63.2612 114.444 61.3363 113.371 59.6264C112.298 57.9166 110.878 56.4619 109.205 55.361Z" fill="url(#paint0_linear_406_983)" fill-opacity="0.48"/>
</g>
<path d="M53.3054 0.476639C52.0421 0.47696 50.808 0.86427 49.7632 1.58834C48.7184 2.31241 47.9111 3.33983 47.446 4.53735L33.5929 40.2324C33.3869 40.7586 33.311 41.3284 33.372 41.8915C33.433 42.4546 33.6289 42.9938 33.9424 43.4616C34.256 43.9293 34.6776 44.3113 35.1701 44.5737C35.6626 44.8361 36.2109 44.971 36.7665 44.9665H48.773C49.0186 44.9629 49.2611 45.0218 49.4787 45.1381C49.6962 45.2543 49.8818 45.4241 50.0185 45.6321C50.1553 45.8401 50.2389 46.0796 50.2618 46.3289C50.2847 46.5782 50.2461 46.8293 50.1496 47.0596L39.4959 72.9951C39.3551 73.3537 39.3413 73.7511 39.4569 74.1189C39.5725 74.4867 39.8103 74.8019 40.1293 75.0103C40.4483 75.2186 40.8285 75.3071 41.2046 75.2604C41.5806 75.2137 41.929 75.0348 42.1896 74.7545L77.1696 36.8977C77.4893 36.5549 77.7029 36.1237 77.7836 35.6579C77.8643 35.1921 77.8086 34.7124 77.6234 34.2787C77.4382 33.8451 77.1318 33.4766 76.7424 33.2195C76.353 32.9623 75.8979 32.8279 75.434 32.8329H62.8463C62.5641 32.8348 62.2866 32.7593 62.0429 32.6142C61.7992 32.4692 61.5982 32.26 61.4611 32.0085C61.324 31.757 61.2558 31.4726 61.2636 31.185C61.2714 30.8974 61.3549 30.6172 61.5054 30.3738L74.3291 10.4889C74.9566 9.5104 75.3123 8.3769 75.3586 7.20882C75.4048 6.04074 75.1398 4.8817 74.5918 3.85484C74.0437 2.82798 73.2331 1.97165 72.246 1.37684C71.2588 0.782026 70.1321 0.470943 68.9854 0.476639H53.3054Z" fill="url(#paint1_linear_406_983)"/>
</g>
<defs>
<filter id="filter0_bi_406_983" x="-19.6259" y="-19.6161" width="155.277" height="157.477" filterUnits="userSpaceOnUse" color-interpolation-filters="sRGB">
<feFlood flood-opacity="0" result="BackgroundImageFix"/>
<feGaussianBlur in="BackgroundImage" stdDeviation="10.0463"/>
<feComposite in2="SourceAlpha" operator="in" result="effect1_backgroundBlur_406_983"/>
<feBlend mode="normal" in="SourceGraphic" in2="effect1_backgroundBlur_406_983" result="shape"/>
<feColorMatrix in="SourceAlpha" type="matrix" values="0 0 0 0 0 0 0 0 0 0 0 0 0 0 0 0 0 0 127 0" result="hardAlpha"/>
<feOffset dy="3.34878"/>
<feGaussianBlur stdDeviation="6.69755"/>
<feComposite in2="hardAlpha" operator="arithmetic" k2="-1" k3="1"/>
<feColorMatrix type="matrix" values="0 0 0 0 1 0 0 0 0 1 0 0 0 0 1 0 0 0 0.24 0"/>
<feBlend mode="normal" in2="shape" result="effect2_innerShadow_406_983"/>
</filter>
<filter id="filter1_bi_406_983" x="14.04" y="35.2783" width="131.539" height="120.49" filterUnits="userSpaceOnUse" color-interpolation-filters="sRGB">
<feFlood flood-opacity="0" result="BackgroundImageFix"/>
<feGaussianBlur in="BackgroundImage" stdDeviation="19"/>
<feComposite in2="SourceAlpha" operator="in" result="effect1_backgroundBlur_406_983"/>
<feBlend mode="normal" in="SourceGraphic" in2="effect1_backgroundBlur_406_983" result="shape"/>
<feColorMatrix in="SourceAlpha" type="matrix" values="0 0 0 0 0 0 0 0 0 0 0 0 0 0 0 0 0 0 127 0" result="hardAlpha"/>
<feOffset dy="3.34878"/>
<feGaussianBlur stdDeviation="6.69755"/>
<feComposite in2="hardAlpha" operator="arithmetic" k2="-1" k3="1"/>
<feColorMatrix type="matrix" values="0 0 0 0 1 0 0 0 0 1 0 0 0 0 1 0 0 0 0.15 0"/>
<feBlend mode="normal" in2="shape" result="effect2_innerShadow_406_983"/>
</filter>
<filter id="filter2_bi_406_983" x="-37.5332" y="-17.3008" width="191.092" height="152.846" filterUnits="userSpaceOnUse" color-interpolation-filters="sRGB">
<feFlood flood-opacity="0" result="BackgroundImageFix"/>
<feGaussianBlur in="BackgroundImage" stdDeviation="19"/>
<feComposite in2="SourceAlpha" operator="in" result="effect1_backgroundBlur_406_983"/>
<feBlend mode="normal" in="SourceGraphic" in2="effect1_backgroundBlur_406_983" result="shape"/>
<feColorMatrix in="SourceAlpha" type="matrix" values="0 0 0 0 0 0 0 0 0 0 0 0 0 0 0 0 0 0 127 0" result="hardAlpha"/>
<feOffset dy="3.34878"/>
<feGaussianBlur stdDeviation="8"/>
<feComposite in2="hardAlpha" operator="arithmetic" k2="-1" k3="1"/>
<feColorMatrix type="matrix" values="0 0 0 0 1 0 0 0 0 1 0 0 0 0 1 0 0 0 0.39 0"/>
<feBlend mode="normal" in2="shape" result="effect2_innerShadow_406_983"/>
</filter>
<linearGradient id="paint0_linear_406_983" x1="-29.5332" y1="20.6992" x2="188.09" y2="43.8145" gradientUnits="userSpaceOnUse">
<stop offset="0.046875" stop-color="#98C1FF"/>
<stop offset="0.529387" stop-color="#C5D9F8" stop-opacity="0.43"/>
<stop offset="1" stop-color="#96C6FF" stop-opacity="0.29"/>
</linearGradient>
<linearGradient id="paint1_linear_406_983" x1="77.8193" y1="14.1808" x2="54.819" y2="74.9826" gradientUnits="userSpaceOnUse">
<stop stop-color="#9C6DF0"/>
<stop offset="1" stop-color="#9C6DF0" stop-opacity="0.35"/>
</linearGradient>
</defs>
</svg>
