<svg width="375" height="421" viewBox="0 0 375 421" fill="none" xmlns="http://www.w3.org/2000/svg">
<path opacity="0.54" d="M-171.636 5.43945C-94.489 26.021 857.038 145.086 836.092 50.9734C827.259 11.2862 127.647 40.7065 78.2842 50.9734C-30.7965 73.6608 -136.017 90.8515 -234.447 144.285C-242.967 148.91 -257.808 156.247 -255.572 168.543C-254.556 174.131 -241.507 177.189 -237.943 178.377C-207.15 188.642 -173.233 189.81 -141.13 191.271C-34.5769 196.122 72.1208 194.584 178.667 199.721C352.174 208.088 528.636 210.281 701.269 188.503C725.297 185.472 749.462 180.181 771.931 170.947C776.06 169.25 778.788 168.441 781.546 165.338C786.313 159.976 759.803 152.779 757.289 152.225C735.944 147.53 714.407 145.774 692.601 145.086C423.547 136.603 153.341 167.086 -111.117 214.291C-150.704 221.357 -192.916 228.364 -230.877 242.264C-303.854 268.985 -224.52 307.07 -183.745 317.587C-136.844 329.686 -87.4033 335.964 -39.2904 340.753C28.318 347.481 96.7893 348.871 164.68 350.733C259.174 353.324 353.997 353.201 448.491 350.66C568.825 347.423 688.647 336.281 808.5 326.183C833.792 324.052 859.214 321.882 884.552 320.356C888.206 320.135 891.983 320.375 895.625 319.991C898.862 319.65 889.19 318.867 885.936 318.753C799.538 315.721 712.801 316.831 626.529 322.104C478.126 331.175 328.986 336.575 181.727 358.236C103.679 369.716 -56.8769 387.666 -131.254 415.281" stroke="url(#paint0_linear_406_365)" stroke-width="9.83431" stroke-linecap="round"/>
<defs>
<linearGradient id="paint0_linear_406_365" x1="-368.192" y1="-14.281" x2="99.6775" y2="877.868" gradientUnits="userSpaceOnUse">
<stop stop-color="white" stop-opacity="0"/>
<stop offset="0.461342" stop-color="white" stop-opacity="0.51"/>
<stop offset="1" stop-color="white" stop-opacity="0"/>
</linearGradient>
</defs>
</svg>
