<svg width="1440" height="782" viewBox="0 0 1440 782" fill="none" xmlns="http://www.w3.org/2000/svg">
<path opacity="0.4" d="M-80 8.83008C48.0003 42.9785 1626.75 240.529 1592 84.3791C1577.34 18.5309 416.564 67.3445 334.662 84.3791C153.677 122.021 -20.9012 150.544 -184.215 239.2C-198.351 246.874 -222.975 259.047 -219.266 279.448C-217.58 288.719 -195.929 293.794 -190.016 295.765C-138.924 312.796 -82.6502 314.733 -29.3856 317.158C147.405 325.207 324.436 322.654 501.215 331.179C789.094 345.06 1081.87 348.7 1368.31 312.565C1408.17 307.536 1448.27 298.757 1485.55 283.437C1492.4 280.621 1496.92 279.279 1501.5 274.13C1509.41 265.234 1465.42 253.292 1461.25 252.374C1425.84 244.583 1390.1 241.67 1353.92 240.529C907.514 226.453 459.195 277.031 20.411 355.352C-45.271 367.076 -115.307 378.702 -178.292 401.764C-299.373 446.098 -167.744 509.288 -100.092 526.739C-22.2739 546.812 59.7567 557.229 139.585 565.174C251.759 576.339 365.365 578.644 478.009 581.733C634.79 586.033 792.118 585.829 948.901 581.612C1148.56 576.242 1347.36 557.755 1546.22 541.001C1588.18 537.466 1630.36 533.864 1672.4 531.332C1678.47 530.967 1684.73 531.364 1690.78 530.728C1696.15 530.162 1680.1 528.862 1674.7 528.673C1531.35 523.643 1387.44 525.483 1244.3 534.233C998.07 549.283 750.621 558.243 506.291 594.182C376.796 613.23 241.234 631.761 117.829 677.579C20.411 713.749 182.403 747.757 226 752.83C474.817 781.783 1211.24 770.163 1461.25 770.163C1627.2 770.163 1524.93 776.465 1690.78 770.163C1883.46 762.841 1865.78 769.167 2058.45 761.46" stroke="url(#paint0_linear_417_78)" stroke-width="16.3169" stroke-linecap="round"/>
<defs>
<linearGradient id="paint0_linear_417_78" x1="-406.122" y1="-23.8896" x2="370.157" y2="1456.34" gradientUnits="userSpaceOnUse">
<stop stop-color="white" stop-opacity="0"/>
<stop offset="0.461342" stop-color="white" stop-opacity="0.51"/>
<stop offset="1" stop-color="white" stop-opacity="0"/>
</linearGradient>
</defs>
</svg>
