<svg width="124" height="113" viewBox="0 0 124 113" fill="none" xmlns="http://www.w3.org/2000/svg">
<g filter="url(#filter0_bi_354_514)">
<ellipse cx="99.7102" cy="23.4615" rx="17" ry="16.6958" transform="rotate(34.4989 99.7102 23.4615)" fill="url(#paint0_linear_354_514)" fill-opacity="0.44"/>
</g>
<path d="M21.9785 13.8423L30.7285 38.0923L39.2285 23.3423L47.7285 45.8423" stroke="url(#paint1_linear_354_514)" stroke-width="7" stroke-linecap="round"/>
<path d="M4.97852 73.3423L27.9785 76.5923L19.2285 59.0923L43.2285 63.5923" stroke="url(#paint2_linear_354_514)" stroke-width="8" stroke-linecap="round"/>
<g filter="url(#filter1_bi_354_514)">
<path d="M58.4798 112.171C42.4798 102.421 46.1462 90.4214 47.9796 86.1714C55.6464 90.5881 72.38 100.271 77.98 103.671C83.58 107.071 84.2295 110.755 84.3962 112.171H58.4798Z" fill="url(#paint3_linear_354_514)" fill-opacity="0.44"/>
</g>
<g filter="url(#filter2_bi_354_514)">
<path d="M48.7285 79.4673L81.3841 98.5941C82.7148 99.3735 84.4195 99.0171 85.3265 97.77L85.8348 97.0711C86.9405 95.5509 86.8384 93.4659 85.5895 92.0609L70.5353 75.125C68.8519 73.231 68.5397 70.4837 69.7553 68.2604L75.9479 56.9344C76.7836 55.4061 78.0458 54.1538 79.5807 53.3302C81.2174 52.4519 83.2396 52.779 84.516 54.1284L84.7416 54.3668C85.9346 55.628 86.2119 57.5006 85.4355 59.0534L78.7299 72.4646C77.8616 74.2011 78.3657 76.3104 79.9254 77.4667L100.85 92.98C103.753 95.1323 107.874 94.3622 109.804 91.3067C111.248 89.0199 111.047 86.0615 109.307 83.9912L97.7285 70.2173L98.7031 68.1945C102.126 61.0895 100.954 52.6244 95.7285 46.7173L91.5593 43.0113C88.4474 40.2452 84.3994 38.7173 80.2359 38.7173C73.8862 38.7173 68.019 42.256 65.0966 47.8933L48.7285 79.4673Z" fill="url(#paint4_linear_354_514)" fill-opacity="0.44"/>
</g>
<defs>
<filter id="filter0_bi_354_514" x="62.712" y="-13.4266" width="73.9958" height="73.7761" filterUnits="userSpaceOnUse" color-interpolation-filters="sRGB">
<feFlood flood-opacity="0" result="BackgroundImageFix"/>
<feGaussianBlur in="BackgroundImage" stdDeviation="10.0463"/>
<feComposite in2="SourceAlpha" operator="in" result="effect1_backgroundBlur_354_514"/>
<feBlend mode="normal" in="SourceGraphic" in2="effect1_backgroundBlur_354_514" result="shape"/>
<feColorMatrix in="SourceAlpha" type="matrix" values="0 0 0 0 0 0 0 0 0 0 0 0 0 0 0 0 0 0 127 0" result="hardAlpha"/>
<feOffset dy="3.34878"/>
<feGaussianBlur stdDeviation="6.69755"/>
<feComposite in2="hardAlpha" operator="arithmetic" k2="-1" k3="1"/>
<feColorMatrix type="matrix" values="0 0 0 0 1 0 0 0 0 1 0 0 0 0 1 0 0 0 0.15 0"/>
<feBlend mode="normal" in2="shape" result="effect2_innerShadow_354_514"/>
</filter>
<filter id="filter1_bi_354_514" x="26.1808" y="66.0787" width="78.3083" height="66.1853" filterUnits="userSpaceOnUse" color-interpolation-filters="sRGB">
<feFlood flood-opacity="0" result="BackgroundImageFix"/>
<feGaussianBlur in="BackgroundImage" stdDeviation="10.0463"/>
<feComposite in2="SourceAlpha" operator="in" result="effect1_backgroundBlur_354_514"/>
<feBlend mode="normal" in="SourceGraphic" in2="effect1_backgroundBlur_354_514" result="shape"/>
<feColorMatrix in="SourceAlpha" type="matrix" values="0 0 0 0 0 0 0 0 0 0 0 0 0 0 0 0 0 0 127 0" result="hardAlpha"/>
<feOffset dy="3.34878"/>
<feGaussianBlur stdDeviation="6.69755"/>
<feComposite in2="hardAlpha" operator="arithmetic" k2="-1" k3="1"/>
<feColorMatrix type="matrix" values="0 0 0 0 1 0 0 0 0 1 0 0 0 0 1 0 0 0 0.15 0"/>
<feBlend mode="normal" in2="shape" result="effect2_innerShadow_354_514"/>
</filter>
<filter id="filter2_bi_354_514" x="28.6359" y="18.6246" width="102.22" height="100.474" filterUnits="userSpaceOnUse" color-interpolation-filters="sRGB">
<feFlood flood-opacity="0" result="BackgroundImageFix"/>
<feGaussianBlur in="BackgroundImage" stdDeviation="10.0463"/>
<feComposite in2="SourceAlpha" operator="in" result="effect1_backgroundBlur_354_514"/>
<feBlend mode="normal" in="SourceGraphic" in2="effect1_backgroundBlur_354_514" result="shape"/>
<feColorMatrix in="SourceAlpha" type="matrix" values="0 0 0 0 0 0 0 0 0 0 0 0 0 0 0 0 0 0 127 0" result="hardAlpha"/>
<feOffset dy="3.34878"/>
<feGaussianBlur stdDeviation="6.69755"/>
<feComposite in2="hardAlpha" operator="arithmetic" k2="-1" k3="1"/>
<feColorMatrix type="matrix" values="0 0 0 0 1 0 0 0 0 1 0 0 0 0 1 0 0 0 0.15 0"/>
<feBlend mode="normal" in2="shape" result="effect2_innerShadow_354_514"/>
</filter>
<linearGradient id="paint0_linear_354_514" x1="47.3111" y1="47.1239" x2="132.662" y2="-17.6252" gradientUnits="userSpaceOnUse">
<stop stop-color="#97AEFF"/>
<stop offset="1" stop-color="#B8DFF5"/>
</linearGradient>
<linearGradient id="paint1_linear_354_514" x1="21.9785" y1="13.8423" x2="47.7285" y2="107.284" gradientUnits="userSpaceOnUse">
<stop stop-color="#E752FF"/>
<stop offset="1" stop-color="#E752FF" stop-opacity="0"/>
</linearGradient>
<linearGradient id="paint2_linear_354_514" x1="13.5996" y1="59.0923" x2="43.2285" y2="117.284" gradientUnits="userSpaceOnUse">
<stop stop-color="#9C6DF0"/>
<stop offset="1" stop-color="#9C6DF0" stop-opacity="0.12"/>
</linearGradient>
<linearGradient id="paint3_linear_354_514" x1="-16.875" y1="99.1714" x2="104.476" y2="47.916" gradientUnits="userSpaceOnUse">
<stop stop-color="#97AEFF"/>
<stop offset="1" stop-color="#B8DFF5"/>
</linearGradient>
<linearGradient id="paint4_linear_354_514" x1="-30.876" y1="81.2842" x2="218.9" y2="7.64507" gradientUnits="userSpaceOnUse">
<stop stop-color="#97AEFF"/>
<stop offset="1" stop-color="#B8DFF5"/>
</linearGradient>
</defs>
</svg>
