<svg width="101" height="119" viewBox="0 0 101 119" fill="none" xmlns="http://www.w3.org/2000/svg">
<path d="M20.7755 118.066L17.5883 117.195C15.9754 116.755 15.0184 115.065 15.4504 113.42L42.2167 11.5781L51.2444 14.0442L24.4784 115.887C24.0462 117.531 22.3884 118.507 20.7755 118.066Z" fill="url(#paint0_linear_354_581)"/>
<path d="M81.7131 118.066L84.9003 117.195C86.5132 116.755 87.4702 115.065 87.0382 113.42L60.2719 11.5781L51.2441 14.0442L78.0102 115.886C78.4424 117.531 80.1002 118.507 81.7131 118.066Z" fill="#8E8E8E"/>
<path d="M20.7755 118.066L17.5883 117.195C15.9754 116.755 15.0184 115.065 15.4504 113.42L42.2167 11.5781L51.2444 14.0442L24.4784 115.887C24.0462 117.531 22.3884 118.507 20.7755 118.066Z" fill="#D2E4EF"/>
<path d="M81.7131 118.066L84.9003 117.195C86.5132 116.755 87.4702 115.065 87.0382 113.42L60.2719 11.5781L51.2441 14.0442L78.0102 115.886C78.4424 117.531 80.1002 118.507 81.7131 118.066Z" fill="url(#paint1_linear_354_581)"/>
<path d="M52.3462 103.717C78.9538 103.717 100.523 81.7268 100.523 54.5999C100.523 27.4731 78.9538 5.48242 52.3462 5.48242C25.7386 5.48242 4.16895 27.4731 4.16895 54.5999C4.16895 81.7268 25.7386 103.717 52.3462 103.717Z" fill="url(#paint2_linear_354_581)"/>
<path d="M52.3467 94.9272C30.5361 94.9272 12.792 76.8368 12.792 54.6006C12.792 32.3644 30.5361 14.2739 52.3467 14.2739C74.1572 14.2739 91.9014 32.3644 91.9014 54.6006C91.9014 76.8368 74.1572 94.9272 52.3467 94.9272ZM52.3467 21.251C34.3095 21.251 19.6355 36.2117 19.6355 54.6006C19.6355 72.9895 34.3095 87.9502 52.3467 87.9502C70.3838 87.9502 85.0579 72.9897 85.0579 54.6006C85.0579 36.2114 70.3838 21.251 52.3467 21.251Z" fill="url(#paint3_linear_354_581)"/>
<path d="M52.347 77.903C39.7436 77.903 29.4902 67.4493 29.4902 54.6002C29.4902 41.7511 39.7438 31.2974 52.347 31.2974C64.9501 31.2974 75.2037 41.7511 75.2037 54.6002C75.2037 67.4493 64.9503 77.903 52.347 77.903ZM52.347 38.2742C43.5173 38.2742 36.3335 45.5981 36.3335 54.6002C36.3335 63.6022 43.5173 70.9262 52.347 70.9262C61.1767 70.9262 68.3604 63.6022 68.3604 54.6002C68.3604 45.5981 61.1767 38.2742 52.347 38.2742Z" fill="url(#paint4_linear_354_581)"/>
<path d="M33.6507 32.7559L14.0078 12.73L15.8813 2.76837C16.3728 0.154441 19.5317 -0.834621 21.378 1.04731L30.9898 10.8468C34.5488 14.4752 36.1123 19.6659 35.1646 24.7054L33.6507 32.7559Z" fill="#FEF0AE"/>
<path d="M26.4955 6.26477L21.378 1.04731C19.5321 -0.834621 16.3731 0.154441 15.8813 2.76837L14.0078 12.73L29.1564 28.1743L30.6706 20.1237C31.6184 15.0842 30.0545 9.89323 26.4955 6.26477Z" fill="#E023FF"/>
<path d="M21.9987 1.68311L21.375 1.04731C19.5291 -0.834621 16.3702 0.154441 15.8784 2.76837L14.0049 12.73L24.6592 23.5923L26.1734 15.5417C27.1215 10.5022 25.5577 5.31123 21.9987 1.68311Z" fill="#E023FF"/>
<path d="M19.8348 0.16284C18.1378 -0.247062 16.2522 0.798307 15.8813 2.76872L14.0078 12.7304L20.1678 19.0106L21.6821 10.9601C22.3875 7.20894 21.6995 3.37503 19.8348 0.16284Z" fill="#E023FF"/>
<path d="M32.707 33.7172L13.0644 13.6909L3.29342 15.601C0.729537 16.1021 -0.240591 19.3226 1.60532 21.2049L11.2172 31.0044C14.7762 34.6328 19.8675 36.2268 24.8105 35.2606L32.707 33.7172Z" fill="#FEF0AE"/>
<path d="M32.707 33.7172L13.0644 13.6909L3.29342 15.601C0.729537 16.1021 -0.240591 19.3226 1.60532 21.2049L11.2172 31.0044C14.7762 34.6328 19.8675 36.2268 24.8105 35.2606L32.707 33.7172Z" fill="#E023FF"/>
<path d="M6.7229 26.4224L1.60532 21.2049C-0.240591 19.323 0.729537 16.1024 3.29342 15.601L13.0644 13.6909L28.213 29.1352L20.3165 30.6789C15.3735 31.6452 10.2819 30.0508 6.7229 26.4224Z" fill="#E023FF"/>
<path d="M2.22895 21.8407L1.60532 21.2049C-0.240591 19.323 0.729537 16.1024 3.29342 15.601L13.0644 13.6909L23.7187 24.5532L15.8222 26.0969C10.8792 27.0635 5.78762 25.4692 2.22895 21.8407Z" fill="#E023FF"/>
<path d="M0.73879 19.6317C0.336734 17.9016 1.36209 15.9791 3.29479 15.601L13.0658 13.6909L19.2258 19.9712L11.3293 21.5149C7.65001 22.2342 3.88949 21.5327 0.73879 19.6317Z" fill="#E023FF"/>
<line x1="14.9299" y1="14.4616" x2="54.5003" y2="57.1249" stroke="#4D4D4D" stroke-width="7.0625" stroke-linecap="round"/>
<defs>
<linearGradient id="paint0_linear_354_581" x1="28.868" y1="64.1177" x2="36.7601" y2="66.1932" gradientUnits="userSpaceOnUse">
<stop stop-color="#5A5A5A"/>
<stop offset="1" stop-color="#444444"/>
</linearGradient>
<linearGradient id="paint1_linear_354_581" x1="78.9951" y1="48.0558" x2="95.0998" y2="118.377" gradientUnits="userSpaceOnUse">
<stop stop-color="#D0EDFF"/>
<stop offset="1" stop-color="#D2E4EF"/>
</linearGradient>
<linearGradient id="paint2_linear_354_581" x1="31.8162" y1="33.6692" x2="98.5316" y2="99.1076" gradientUnits="userSpaceOnUse">
<stop offset="0.119792" stop-color="#E2BFFF"/>
<stop offset="1" stop-color="#9C6DF0"/>
</linearGradient>
<linearGradient id="paint3_linear_354_581" x1="24.3904" y1="26.0987" x2="81.3836" y2="82.0008" gradientUnits="userSpaceOnUse">
<stop stop-color="white"/>
<stop offset="1" stop-color="white"/>
</linearGradient>
<linearGradient id="paint4_linear_354_581" x1="36.1925" y1="38.1304" x2="69.1261" y2="70.4336" gradientUnits="userSpaceOnUse">
<stop stop-color="white"/>
<stop offset="1" stop-color="#F3FBFF"/>
</linearGradient>
</defs>
</svg>
